<svg width="215" height="53" viewBox="0 0 215 53" fill="none" xmlns="http://www.w3.org/2000/svg">
<path d="M5.90036 8.27246C10.3863 4.3326 17.084 3.39257 22.5998 5.54221C30.5003 8.37614 35.0691 17.7558 32.878 25.7668C31.9172 29.0984 30.051 32.0567 28.2608 34.9943C26.6295 32.1881 24.3278 29.8587 21.487 28.2759C23.7887 25.8636 25.3439 22.2624 23.761 19.0414C21.8671 13.9541 14.4021 12.4611 10.8701 16.6913C7.55233 19.9538 8.51311 25.2899 11.5751 28.3657C8.7412 29.7412 6.57774 32.0844 5.25063 34.9252C2.09875 31.0061 -0.424145 26.1815 0.0596964 20.9975C-0.202961 16.1038 2.30611 11.4589 5.90036 8.27246Z" fill="#515DEF"/>
<path d="M11.4097 42.6182C12.4396 37.8903 13.0962 33.0934 14.057 28.3517C15.6882 28.3587 17.3125 28.3587 18.9438 28.3587C19.946 33.0657 20.6649 37.8281 21.6187 42.549C19.9598 44.0628 18.6396 46.3437 16.5177 47.111C14.4302 46.3023 13.0962 44.0766 11.4097 42.6182Z" fill="#515DEF"/>
<path d="M55.5322 39V29.5307L45.4269 14.2667H51.3276L58.2529 25.008L65.2136 14.2667H70.7962L60.6556 29.566V39H55.5322ZM76.2503 39.3533C74.4129 39.3533 72.7523 38.9293 71.2683 38.0813C69.7843 37.2333 68.6065 36.0909 67.7349 34.654C66.8634 33.2171 66.4276 31.6036 66.4276 29.8133C66.4276 28.0231 66.8516 26.4096 67.6996 24.9727C68.5712 23.5122 69.7489 22.358 71.2329 21.51C72.7405 20.662 74.4129 20.238 76.2503 20.238C78.0876 20.238 79.7483 20.662 81.2323 21.51C82.7398 22.358 83.9176 23.5122 84.7656 24.9727C85.6372 26.4096 86.0729 28.0231 86.0729 29.8133C86.0729 31.6036 85.6372 33.2171 84.7656 34.654C83.9176 36.0909 82.7516 37.2333 81.2676 38.0813C79.7836 38.9293 78.1112 39.3533 76.2503 39.3533ZM76.2503 35.1487C77.2161 35.1487 78.0758 34.9131 78.8296 34.442C79.6069 33.9709 80.2194 33.3349 80.6669 32.534C81.1381 31.7096 81.3736 30.8027 81.3736 29.8133C81.3736 28.8004 81.1381 27.8936 80.6669 27.0927C80.2194 26.2918 79.6069 25.6558 78.8296 25.1847C78.0758 24.69 77.2161 24.4427 76.2503 24.4427C75.3081 24.4427 74.4483 24.69 73.6709 25.1847C72.8936 25.6558 72.2812 26.2918 71.8336 27.0927C71.3861 27.8936 71.1623 28.8004 71.1623 29.8133C71.1623 30.8027 71.3861 31.7096 71.8336 32.534C72.2812 33.3349 72.8936 33.9709 73.6709 34.442C74.4483 34.9131 75.3081 35.1487 76.2503 35.1487ZM95.8324 39.3533C94.4191 39.3533 93.1588 39.0471 92.0517 38.4347C90.9682 37.7987 90.1084 36.9271 89.4724 35.82C88.86 34.7129 88.5537 33.4409 88.5537 32.004V20.5913H93.3944V31.2973C93.3944 32.4751 93.736 33.4173 94.4191 34.124C95.1257 34.8307 96.068 35.184 97.2457 35.184C98.0466 35.184 98.7651 35.0309 99.4011 34.7247C100.061 34.3949 100.602 33.9356 101.026 33.3467V20.5913H105.867V39H101.026V37.516C99.6131 38.7409 97.8817 39.3533 95.8324 39.3533ZM109.286 39V20.5913H114.127V22.6407C114.716 21.8398 115.423 21.2273 116.247 20.8033C117.072 20.3793 118.002 20.1673 119.038 20.1673C119.934 20.1909 120.605 20.3322 121.052 20.5913V24.8313C120.699 24.6664 120.31 24.5487 119.886 24.478C119.462 24.3838 119.027 24.3367 118.579 24.3367C117.637 24.3367 116.777 24.5722 116 25.0433C115.222 25.5144 114.598 26.1858 114.127 27.0573V39H109.286ZM130.429 39V14.2667H135.552V34.4773H149.085V39H130.429ZM160.229 39.3533C158.392 39.3533 156.731 38.9293 155.247 38.0813C153.763 37.2333 152.585 36.0909 151.714 34.654C150.842 33.2171 150.406 31.6036 150.406 29.8133C150.406 28.0231 150.83 26.4096 151.678 24.9727C152.55 23.5122 153.728 22.358 155.212 21.51C156.719 20.662 158.392 20.238 160.229 20.238C162.066 20.238 163.727 20.662 165.211 21.51C166.719 22.358 167.896 23.5122 168.744 24.9727C169.616 26.4096 170.052 28.0231 170.052 29.8133C170.052 31.6036 169.616 33.2171 168.744 34.654C167.896 36.0909 166.73 37.2333 165.246 38.0813C163.762 38.9293 162.09 39.3533 160.229 39.3533ZM160.229 35.1487C161.195 35.1487 162.055 34.9131 162.808 34.442C163.586 33.9709 164.198 33.3349 164.646 32.534C165.117 31.7096 165.352 30.8027 165.352 29.8133C165.352 28.8004 165.117 27.8936 164.646 27.0927C164.198 26.2918 163.586 25.6558 162.808 25.1847C162.055 24.69 161.195 24.4427 160.229 24.4427C159.287 24.4427 158.427 24.69 157.65 25.1847C156.872 25.6558 156.26 26.2918 155.812 27.0927C155.365 27.8936 155.141 28.8004 155.141 29.8133C155.141 30.8027 155.365 31.7096 155.812 32.534C156.26 33.3349 156.872 33.9709 157.65 34.442C158.427 34.9131 159.287 35.1487 160.229 35.1487ZM181.931 46.5613C180.518 46.5613 179.152 46.4082 177.833 46.102C176.513 45.8193 175.324 45.4071 174.264 44.8653L175.96 41.12C176.973 41.6147 177.962 41.9798 178.928 42.2153C179.894 42.4509 180.859 42.5687 181.825 42.5687C183.262 42.5687 184.346 42.2624 185.076 41.65C185.83 41.0376 186.207 40.1189 186.207 38.894V37.4453C184.699 38.5524 183.015 39.106 181.154 39.106C179.411 39.106 177.833 38.6938 176.419 37.8693C175.029 37.0213 173.911 35.8789 173.063 34.442C172.238 33.0051 171.826 31.4151 171.826 29.672C171.826 27.9289 172.238 26.3507 173.063 24.9373C173.911 23.524 175.053 22.4051 176.49 21.5807C177.927 20.7327 179.529 20.3087 181.295 20.3087C182.19 20.3087 183.062 20.4382 183.91 20.6973C184.758 20.9564 185.547 21.3216 186.277 21.7927V20.5913H191.047V38.9647C191.047 41.3909 190.258 43.2636 188.68 44.5827C187.125 45.9018 184.876 46.5613 181.931 46.5613ZM181.896 35.0073C182.791 35.0073 183.604 34.866 184.334 34.5833C185.064 34.2771 185.688 33.8531 186.207 33.3113V26.1033C185.688 25.5851 185.052 25.1847 184.299 24.902C183.568 24.5958 182.779 24.4427 181.931 24.4427C180.918 24.4427 180.011 24.6782 179.211 25.1493C178.41 25.5969 177.774 26.2211 177.303 27.022C176.831 27.7993 176.596 28.6827 176.596 29.672C176.596 30.6849 176.82 31.5918 177.267 32.3927C177.738 33.1936 178.374 33.8296 179.175 34.3007C180 34.7718 180.907 35.0073 181.896 35.0073ZM203.448 39.3533C201.61 39.3533 199.95 38.9293 198.466 38.0813C196.982 37.2333 195.804 36.0909 194.932 34.654C194.061 33.2171 193.625 31.6036 193.625 29.8133C193.625 28.0231 194.049 26.4096 194.897 24.9727C195.768 23.5122 196.946 22.358 198.43 21.51C199.938 20.662 201.61 20.238 203.448 20.238C205.285 20.238 206.946 20.662 208.43 21.51C209.937 22.358 211.115 23.5122 211.963 24.9727C212.834 26.4096 213.27 28.0231 213.27 29.8133C213.27 31.6036 212.834 33.2171 211.963 34.654C211.115 36.0909 209.949 37.2333 208.465 38.0813C206.981 38.9293 205.308 39.3533 203.448 39.3533ZM203.448 35.1487C204.413 35.1487 205.273 34.9131 206.027 34.442C206.804 33.9709 207.417 33.3349 207.864 32.534C208.335 31.7096 208.571 30.8027 208.571 29.8133C208.571 28.8004 208.335 27.8936 207.864 27.0927C207.417 26.2918 206.804 25.6558 206.027 25.1847C205.273 24.69 204.413 24.4427 203.448 24.4427C202.505 24.4427 201.646 24.69 200.868 25.1847C200.091 25.6558 199.478 26.2918 199.031 27.0927C198.583 27.8936 198.36 28.8004 198.36 29.8133C198.36 30.8027 198.583 31.7096 199.031 32.534C199.478 33.3349 200.091 33.9709 200.868 34.442C201.646 34.9131 202.505 35.1487 203.448 35.1487Z" fill="#313131"/>
</svg>
