<svg width="114" height="37" viewBox="0 0 114 37" fill="none" xmlns="http://www.w3.org/2000/svg">
<path d="M37 0L18.5 -2.42598e-06C8.28274 -3.76581e-06 1.41726e-05 8.28273 1.28328e-05 18.5C1.1493e-05 28.7173 8.28274 37 18.5 37L37 37L37 0Z" fill="#FCFCFC"/>
<path d="M36.9999 29.2105C30.9054 29.2105 25.9648 24.27 25.9648 18.1755C25.9648 12.081 30.9054 7.14038 36.9999 7.14038L36.9999 29.2105Z" fill="#FE3278"/>
<path d="M37 29.2105C43.0945 29.2105 48.035 24.27 48.035 18.1755C48.035 12.081 43.0945 7.14038 37 7.14038L37 29.2105Z" fill="#FCD451"/>
<path d="M22.0702 18.5C22.0702 15.4528 19.5999 12.9825 16.5526 12.9825C13.5054 12.9825 11.0351 15.4528 11.0351 18.5C11.0351 21.5473 13.5054 24.0176 16.5526 24.0176C19.5999 24.0176 22.0702 21.5473 22.0702 18.5Z" fill="#5925DC"/>
<path d="M68.215 23.28H72.815V25.5H65.415V11.54H68.215V23.28ZM79.5147 25.68C78.4481 25.68 77.4881 25.4467 76.6347 24.98C75.7814 24.5 75.1081 23.8267 74.6147 22.96C74.1347 22.0933 73.8947 21.0933 73.8947 19.96C73.8947 18.8267 74.1414 17.8267 74.6347 16.96C75.1414 16.0933 75.8281 15.4267 76.6947 14.96C77.5614 14.48 78.5281 14.24 79.5947 14.24C80.6614 14.24 81.6281 14.48 82.4947 14.96C83.3614 15.4267 84.0414 16.0933 84.5347 16.96C85.0414 17.8267 85.2947 18.8267 85.2947 19.96C85.2947 21.0933 85.0347 22.0933 84.5147 22.96C84.0081 23.8267 83.3147 24.5 82.4347 24.98C81.5681 25.4467 80.5947 25.68 79.5147 25.68ZM79.5147 23.24C80.0214 23.24 80.4947 23.12 80.9347 22.88C81.3881 22.6267 81.7481 22.2533 82.0147 21.76C82.2814 21.2667 82.4147 20.6667 82.4147 19.96C82.4147 18.9067 82.1347 18.1 81.5747 17.54C81.0281 16.9667 80.3547 16.68 79.5547 16.68C78.7547 16.68 78.0814 16.9667 77.5347 17.54C77.0014 18.1 76.7347 18.9067 76.7347 19.96C76.7347 21.0133 76.9947 21.8267 77.5147 22.4C78.0481 22.96 78.7147 23.24 79.5147 23.24ZM91.6886 14.24C92.5153 14.24 93.242 14.4067 93.8686 14.74C94.4953 15.06 94.9886 15.48 95.3486 16V14.42H98.1686V25.58C98.1686 26.6067 97.962 27.52 97.5486 28.32C97.1353 29.1333 96.5153 29.7733 95.6886 30.24C94.862 30.72 93.862 30.96 92.6886 30.96C91.1153 30.96 89.822 30.5933 88.8086 29.86C87.8086 29.1267 87.242 28.1267 87.1086 26.86H89.8886C90.0353 27.3667 90.3486 27.7667 90.8286 28.06C91.322 28.3667 91.9153 28.52 92.6086 28.52C93.422 28.52 94.082 28.2733 94.5886 27.78C95.0953 27.3 95.3486 26.5667 95.3486 25.58V23.86C94.9886 24.38 94.4886 24.8133 93.8486 25.16C93.222 25.5067 92.502 25.68 91.6886 25.68C90.7553 25.68 89.902 25.44 89.1286 24.96C88.3553 24.48 87.742 23.8067 87.2886 22.94C86.8486 22.06 86.6286 21.0533 86.6286 19.92C86.6286 18.8 86.8486 17.8067 87.2886 16.94C87.742 16.0733 88.3486 15.4067 89.1086 14.94C89.882 14.4733 90.742 14.24 91.6886 14.24ZM95.3486 19.96C95.3486 19.28 95.2153 18.7 94.9486 18.22C94.682 17.7267 94.322 17.3533 93.8686 17.1C93.4153 16.8333 92.9286 16.7 92.4086 16.7C91.8886 16.7 91.4086 16.8267 90.9686 17.08C90.5286 17.3333 90.1686 17.7067 89.8886 18.2C89.622 18.68 89.4886 19.2533 89.4886 19.92C89.4886 20.5867 89.622 21.1733 89.8886 21.68C90.1686 22.1733 90.5286 22.5533 90.9686 22.82C91.422 23.0867 91.902 23.22 92.4086 23.22C92.9286 23.22 93.4153 23.0933 93.8686 22.84C94.322 22.5733 94.682 22.2 94.9486 21.72C95.2153 21.2267 95.3486 20.64 95.3486 19.96ZM105.823 25.68C104.757 25.68 103.797 25.4467 102.943 24.98C102.09 24.5 101.417 23.8267 100.923 22.96C100.443 22.0933 100.203 21.0933 100.203 19.96C100.203 18.8267 100.45 17.8267 100.943 16.96C101.45 16.0933 102.137 15.4267 103.003 14.96C103.87 14.48 104.837 14.24 105.903 14.24C106.97 14.24 107.937 14.48 108.803 14.96C109.67 15.4267 110.35 16.0933 110.843 16.96C111.35 17.8267 111.603 18.8267 111.603 19.96C111.603 21.0933 111.343 22.0933 110.823 22.96C110.317 23.8267 109.623 24.5 108.743 24.98C107.877 25.4467 106.903 25.68 105.823 25.68ZM105.823 23.24C106.33 23.24 106.803 23.12 107.243 22.88C107.697 22.6267 108.057 22.2533 108.323 21.76C108.59 21.2667 108.723 20.6667 108.723 19.96C108.723 18.9067 108.443 18.1 107.883 17.54C107.337 16.9667 106.663 16.68 105.863 16.68C105.063 16.68 104.39 16.9667 103.843 17.54C103.31 18.1 103.043 18.9067 103.043 19.96C103.043 21.0133 103.303 21.8267 103.823 22.4C104.357 22.96 105.023 23.24 105.823 23.24Z" fill="white"/>
</svg>
